<?xml version="1.0" encoding="UTF-8"?>
<svg xmlns="http://www.w3.org/2000/svg" xmlns:xlink="http://www.w3.org/1999/xlink" width="100px" height="80px" viewBox="0 0 100 80" version="1.1">
<g id="surface1">
<path style=" stroke:none;fill-rule:nonzero;fill:rgb(0%,0%,0%);fill-opacity:1;" d="M 10.734375 17.59375 C 9.296875 19.304688 8.441406 21.648438 7.820312 25.757812 C 7.394531 28.609375 7.277344 30.320312 7.277344 33.289062 C 7.277344 36.960938 7.261719 37.21875 6.65625 38.546875 C 5.183594 41.710938 4.796875 49.367188 5.902344 54.046875 C 6.578125 57.023438 7.375 58.289062 8.773438 58.671875 C 9.820312 58.984375 9.898438 58.921875 9.898438 57.65625 C 9.898438 56.515625 9.78125 56.328125 9.085938 56.328125 C 6.714844 56.203125 5.261719 48.796875 6.460938 42.976562 C 6.695312 41.773438 7.160156 40.445312 7.492188 39.9375 C 8.09375 39.117188 8.09375 39.046875 8.09375 34.242188 C 8.074219 27.46875 8.773438 23.289062 10.386719 20.757812 C 11.957031 18.164062 13.976562 19.179688 15.257812 23.101562 C 15.875 25 16.089844 25.25 16.886719 25.25 C 18.167969 25.125 18.921875 26.898438 19.253906 30.882812 L 19.527344 33.859375 L 20.632812 34.242188 C 22.960938 35.0625 24.246094 41.585938 23.507812 48.859375 C 23.117188 52.78125 21.507812 56.328125 20.148438 56.328125 C 19.933594 56.328125 19.796875 56.835938 19.796875 57.59375 C 19.796875 60.320312 22.070312 58.414062 23.214844 54.75 C 24.183594 51.515625 24.535156 48.484375 24.417969 43.734375 C 24.285156 37.40625 22.554688 31.648438 20.789062 31.648438 C 20.382812 31.648438 20.148438 31.265625 20.070312 30.507812 C 19.542969 25 18.734375 22.78125 17.179688 22.78125 C 16.441406 22.78125 16.148438 22.53125 15.972656 21.585938 C 15.625 19.8125 13.800781 17.085938 12.695312 16.773438 C 12.054688 16.515625 11.414062 16.773438 10.734375 17.59375 Z M 10.734375 17.59375 "/>
<path style=" stroke:none;fill-rule:nonzero;fill:rgb(0%,0%,0%);fill-opacity:1;" d="M 42.3125 32.976562 C 41.03125 34.617188 40.390625 39.117188 40.757812 43.609375 C 41.148438 48.414062 42.878906 51.078125 44.3125 49.117188 C 45.089844 48.101562 45.769531 44.679688 45.382812 43.921875 C 45.242188 43.671875 45.109375 43.859375 45.070312 44.304688 C 45.011719 44.8125 44.777344 45.820312 44.527344 46.648438 C 43.867188 48.796875 42.703125 48.671875 41.886719 46.265625 C 41.324219 44.617188 41.246094 44.046875 41.246094 41.140625 C 41.246094 38.226562 41.324219 37.65625 41.886719 36.015625 C 42.703125 33.609375 43.867188 33.484375 44.527344 35.632812 C 44.777344 36.453125 45.011719 37.46875 45.070312 37.976562 C 45.109375 38.414062 45.242188 38.609375 45.382812 38.351562 C 45.75 37.59375 45.148438 34.492188 44.371094 33.289062 C 43.632812 32.148438 43.035156 32.085938 42.3125 32.976562 Z M 42.3125 32.976562 "/>
<path style=" stroke:none;fill-rule:nonzero;fill:rgb(0%,0%,0%);fill-opacity:1;" d="M 47.125 33.289062 C 45.863281 35.507812 46.292969 40.25 47.847656 41.648438 C 48.988281 42.71875 49.300781 43.414062 49.300781 45 C 49.300781 48.164062 47.863281 49.179688 47.046875 46.515625 C 46.410156 44.429688 46.121094 44.492188 46.46875 46.773438 C 47.046875 50.382812 48.71875 50.882812 49.496094 47.65625 C 50.273438 44.429688 49.789062 41.710938 48.136719 40 C 47.300781 39.179688 47.046875 38.609375 47.007812 37.46875 C 46.96875 36.648438 47.046875 35.570312 47.164062 35.0625 C 47.515625 33.734375 48.601562 33.921875 49.011719 35.445312 C 49.417969 36.898438 49.6875 37.085938 49.6875 35.820312 C 49.6875 34.429688 48.738281 32.28125 48.15625 32.28125 C 47.886719 32.34375 47.417969 32.71875 47.125 33.289062 Z M 47.125 33.289062 "/>
<path style=" stroke:none;fill-rule:nonzero;fill:rgb(0%,0%,0%);fill-opacity:1;" d="M 29.503906 41.078125 C 29.503906 46.203125 29.578125 49.367188 29.695312 49.367188 C 29.8125 49.367188 29.890625 46.710938 29.890625 42.65625 C 29.890625 38.984375 29.96875 36.140625 30.066406 36.328125 C 30.164062 36.515625 30.609375 39.554688 31.054688 43.039062 C 31.617188 47.28125 31.988281 49.367188 32.199219 49.367188 C 32.414062 49.367188 32.804688 47.148438 33.386719 42.53125 L 34.257812 35.757812 L 34.320312 42.53125 C 34.359375 48.039062 34.429688 49.367188 34.648438 49.367188 C 34.878906 49.367188 34.9375 47.914062 34.9375 41.078125 C 34.9375 32.914062 34.9375 32.851562 34.507812 33.039062 C 34.164062 33.164062 33.910156 34.554688 33.191406 40 C 32.703125 43.734375 32.277344 46.835938 32.222656 46.835938 C 32.160156 46.835938 31.695312 43.796875 31.210938 40 C 30.511719 34.8125 30.222656 33.164062 29.910156 33.039062 C 29.523438 32.851562 29.503906 33.101562 29.503906 41.078125 Z M 29.503906 41.078125 "/>
<path style=" stroke:none;fill-rule:nonzero;fill:rgb(0%,0%,0%);fill-opacity:1;" d="M 36.488281 41.140625 C 36.488281 46.203125 36.566406 49.367188 36.683594 49.367188 C 36.800781 49.367188 36.878906 47.65625 36.878906 45.570312 C 36.878906 43.484375 36.957031 41.773438 37.035156 41.773438 C 37.113281 41.773438 37.695312 43.484375 38.332031 45.570312 C 38.976562 47.65625 39.613281 49.367188 39.769531 49.367188 C 39.945312 49.367188 39.539062 47.59375 38.859375 45.382812 C 38.199219 43.226562 37.65625 41.265625 37.65625 41.015625 C 37.65625 40.820312 38.199219 38.921875 38.878906 36.773438 C 39.808594 33.796875 40.003906 32.914062 39.691406 32.914062 C 39.460938 32.914062 38.839844 34.429688 38.238281 36.390625 C 37.65625 38.289062 37.113281 39.875 37.035156 39.875 C 36.957031 39.875 36.878906 38.289062 36.878906 36.390625 C 36.878906 34.492188 36.800781 32.914062 36.683594 32.914062 C 36.566406 32.914062 36.488281 36.078125 36.488281 41.140625 Z M 36.488281 41.140625 "/>
<path style=" stroke:none;fill-rule:nonzero;fill:rgb(0%,0%,0%);fill-opacity:1;" d="M 50.894531 39.617188 L 50.949219 46.328125 L 51.609375 48.226562 C 52.175781 49.875 52.386719 50.0625 53.03125 49.8125 C 54.464844 49.179688 54.929688 46.328125 54.929688 37.78125 C 54.929688 33.859375 54.871094 32.914062 54.640625 32.914062 C 54.40625 32.914062 54.347656 33.984375 54.347656 38.859375 C 54.347656 43.859375 54.289062 45 53.941406 46.453125 C 53.4375 48.546875 52.410156 48.734375 51.824219 46.835938 C 51.492188 45.757812 51.4375 44.75 51.4375 39.242188 C 51.4375 33.859375 51.398438 32.914062 51.125 32.914062 C 50.855469 32.914062 50.832031 33.796875 50.894531 39.617188 Z M 50.894531 39.617188 "/>
<path style=" stroke:none;fill-rule:nonzero;fill:rgb(0%,0%,0%);fill-opacity:1;" d="M 56.289062 41.078125 C 56.289062 48.039062 56.328125 49.367188 56.578125 49.367188 C 56.8125 49.367188 56.871094 48.164062 56.871094 42.53125 L 56.890625 35.757812 L 57.78125 42.53125 C 58.386719 47.023438 58.8125 49.367188 59.007812 49.367188 C 59.203125 49.367188 59.609375 46.960938 60.167969 42.65625 L 61.046875 35.953125 L 61.101562 42.65625 C 61.140625 48.039062 61.21875 49.367188 61.433594 49.367188 C 61.667969 49.367188 61.722656 47.914062 61.722656 41.078125 C 61.722656 32.976562 61.722656 32.851562 61.316406 33.039062 C 60.984375 33.164062 60.695312 34.679688 59.996094 40 C 59.507812 43.734375 59.0625 46.835938 59.007812 46.835938 C 58.949219 46.835938 58.503906 43.734375 58.015625 40 C 57.316406 34.679688 57.027344 33.164062 56.695312 33.039062 C 56.289062 32.851562 56.289062 32.976562 56.289062 41.078125 Z M 56.289062 41.078125 "/>
<path style=" stroke:none;fill-rule:nonzero;fill:rgb(0%,0%,0%);fill-opacity:1;" d="M 63.277344 41.078125 C 63.277344 46.203125 63.355469 49.367188 63.472656 49.367188 C 63.644531 49.367188 63.761719 42.71875 63.683594 37.78125 C 63.644531 34.679688 63.9375 36.015625 64.832031 42.71875 C 65.390625 47.085938 65.78125 49.367188 65.992188 49.367188 C 66.1875 49.367188 66.574219 47.023438 67.15625 42.53125 L 68.035156 35.757812 L 68.089844 42.53125 C 68.128906 48.039062 68.207031 49.367188 68.421875 49.367188 C 68.65625 49.367188 68.710938 47.914062 68.710938 41.078125 C 68.710938 32.914062 68.710938 32.851562 68.285156 33.039062 C 67.933594 33.164062 67.683594 34.554688 66.964844 40 C 66.480469 43.734375 66.050781 46.835938 65.992188 46.835938 C 65.9375 46.835938 65.492188 43.796875 64.984375 40 C 64.304688 34.8125 63.992188 33.164062 63.683594 33.039062 C 63.292969 32.851562 63.277344 33.039062 63.277344 41.078125 Z M 63.277344 41.078125 "/>
<path style=" stroke:none;fill-rule:nonzero;fill:rgb(0%,0%,0%);fill-opacity:1;" d="M 70.691406 40.632812 C 70.128906 44.9375 69.683594 48.609375 69.683594 48.859375 C 69.683594 50.0625 70.089844 49.179688 70.359375 47.46875 C 70.652344 45.632812 70.691406 45.570312 72.125 45.570312 C 73.5625 45.570312 73.585938 45.570312 73.777344 47.46875 C 73.894531 48.484375 74.105469 49.367188 74.261719 49.367188 C 74.632812 49.367188 74.632812 49.367188 73.484375 40.820312 C 72.125 30.570312 72.03125 30.570312 70.691406 40.632812 Z M 72.769531 39.429688 L 73.351562 43.671875 L 72.109375 43.671875 C 70.886719 43.671875 70.863281 43.609375 71.019531 42.21875 C 71.507812 38.226562 72.03125 34.679688 72.109375 34.875 C 72.148438 35.0625 72.4375 37.085938 72.769531 39.429688 Z M 72.769531 39.429688 "/>
<path style=" stroke:none;fill-rule:nonzero;fill:rgb(0%,0%,0%);fill-opacity:1;" d="M 75.503906 41.140625 C 75.503906 45.882812 75.582031 49.367188 75.679688 49.367188 C 75.792969 49.367188 75.894531 47.851562 75.933594 46.015625 C 75.988281 42.976562 76.027344 42.71875 76.515625 42.53125 C 76.941406 42.34375 77.136719 42.914062 77.777344 45.820312 C 78.203125 47.914062 78.667969 49.367188 78.863281 49.367188 C 79.152344 49.367188 79.113281 48.921875 78.570312 46.453125 C 78.21875 44.875 77.875 43.414062 77.777344 43.226562 C 77.699219 43.101562 77.914062 42.34375 78.257812 41.515625 C 78.765625 40.445312 78.917969 39.617188 78.957031 37.851562 C 79.058594 34.117188 78.53125 32.914062 76.863281 32.914062 L 75.503906 32.914062 Z M 78.21875 35.445312 C 79.074219 38.226562 78.375 41.140625 76.863281 41.140625 L 75.894531 41.140625 L 75.894531 34.179688 L 76.863281 34.179688 C 77.582031 34.179688 77.929688 34.492188 78.21875 35.445312 Z M 78.21875 35.445312 "/>
<path style=" stroke:none;fill-rule:nonzero;fill:rgb(0%,0%,0%);fill-opacity:1;" d="M 80.355469 41.140625 C 80.355469 46.203125 80.433594 49.367188 80.550781 49.367188 C 80.667969 49.367188 80.746094 46.203125 80.746094 41.140625 C 80.746094 36.078125 80.667969 32.914062 80.550781 32.914062 C 80.433594 32.914062 80.355469 36.078125 80.355469 41.140625 Z M 80.355469 41.140625 "/>
<path style=" stroke:none;fill-rule:nonzero;fill:rgb(0%,0%,0%);fill-opacity:1;" d="M 81.910156 33.546875 C 81.910156 33.921875 82.53125 34.179688 83.363281 34.179688 C 84.164062 34.179688 84.820312 34.304688 84.820312 34.554688 C 84.820312 34.75 84.164062 37.78125 83.363281 41.328125 C 82.570312 44.8125 81.910156 48.101562 81.910156 48.546875 C 81.910156 49.179688 82.375 49.367188 83.753906 49.367188 C 85.984375 49.367188 86.238281 48.226562 84.0625 47.976562 L 82.511719 47.78125 L 84.0625 40.953125 C 84.898438 37.21875 85.597656 33.859375 85.597656 33.546875 C 85.597656 33.164062 84.820312 32.914062 83.753906 32.914062 C 82.648438 32.914062 81.910156 33.164062 81.910156 33.546875 Z M 81.910156 33.546875 "/>
<path style=" stroke:none;fill-rule:nonzero;fill:rgb(0%,0%,0%);fill-opacity:1;" d="M 86.566406 41.140625 L 86.566406 49.367188 L 88.214844 49.367188 C 89.1875 49.367188 89.871094 49.117188 89.871094 48.734375 C 89.871094 48.351562 89.285156 48.101562 88.511719 48.101562 L 87.152344 48.101562 L 87.152344 41.773438 L 88.410156 41.773438 C 90.023438 41.773438 90.0625 40.632812 88.472656 40.382812 L 87.25 40.1875 L 87.1875 37.148438 L 87.132812 34.179688 L 88.488281 34.179688 C 89.285156 34.179688 89.871094 33.921875 89.871094 33.546875 C 89.871094 33.164062 89.1875 32.914062 88.214844 32.914062 L 86.566406 32.914062 Z M 86.566406 41.140625 "/>
<path style=" stroke:none;fill-rule:nonzero;fill:rgb(0%,0%,0%);fill-opacity:1;" d="M 91.03125 41.140625 C 91.03125 47.914062 91.089844 49.367188 91.304688 49.367188 C 91.519531 49.367188 91.613281 48.414062 91.652344 46.015625 C 91.710938 42.976562 91.75 42.71875 92.21875 42.53125 C 92.644531 42.34375 92.839844 42.914062 93.460938 45.820312 C 93.867188 47.78125 94.3125 49.367188 94.464844 49.367188 C 94.855469 49.367188 94.777344 48.671875 94.0625 45.632812 L 93.402344 42.78125 L 94.023438 41.453125 C 94.953125 39.429688 94.972656 35.0625 94.039062 33.671875 C 93.765625 33.226562 92.972656 32.914062 92.296875 32.914062 L 91.03125 32.914062 Z M 93.828125 35 C 94.039062 35.507812 94.195312 36.648438 94.195312 37.65625 C 94.195312 40.0625 93.671875 41.140625 92.546875 41.140625 L 91.613281 41.140625 L 91.613281 34.179688 L 92.546875 34.179688 C 93.070312 34.179688 93.632812 34.554688 93.828125 35 Z M 93.828125 35 "/>
<path style=" stroke:none;fill-rule:nonzero;fill:rgb(0%,0%,0%);fill-opacity:1;" d="M 14.324219 38.289062 C 14.070312 40.0625 13.566406 40.382812 13.199219 38.921875 C 12.8125 37.40625 12.515625 38.164062 12.515625 40.570312 C 12.515625 42.59375 12.484375 42.71875 11.800781 42.914062 C 11.007812 43.101562 10.890625 43.859375 11.355469 45.570312 C 11.746094 46.960938 11.550781 48.546875 10.945312 48.984375 C 10.347656 49.492188 10.347656 51.140625 10.945312 51.648438 C 11.605469 52.148438 11.746094 53.734375 11.277344 55.320312 C 10.8125 56.898438 11.007812 58.546875 11.589844 57.976562 C 12.304688 57.21875 12.632812 58.164062 12.5 60.507812 C 12.367188 62.976562 12.632812 63.289062 13.355469 61.648438 C 13.839844 60.507812 14.132812 60.882812 14.363281 63.039062 C 14.613281 65.0625 14.871094 64.9375 15.238281 62.65625 C 15.570312 60.570312 15.9375 60.25 16.304688 61.710938 C 16.730469 63.351562 17.0625 62.78125 17.117188 60.25 C 17.179688 58.039062 17.21875 57.914062 17.839844 57.914062 C 18.578125 57.914062 18.804688 56.960938 18.34375 55.695312 C 17.894531 54.492188 17.996094 52.59375 18.539062 51.898438 C 18.804688 51.585938 19.023438 50.882812 19.023438 50.320312 C 19.023438 49.8125 18.804688 49.242188 18.539062 48.984375 C 17.996094 48.546875 17.917969 47.148438 18.34375 45.1875 C 18.695312 43.546875 18.554688 43.039062 17.722656 43.039062 C 17.117188 43.039062 17.078125 42.914062 17.078125 40.882812 C 17.078125 38.226562 16.789062 37.46875 16.324219 38.859375 C 15.835938 40.25 15.546875 40.125 15.296875 38.289062 C 15.179688 37.40625 14.964844 36.710938 14.808594 36.710938 C 14.675781 36.710938 14.441406 37.40625 14.324219 38.289062 Z M 16.285156 43.609375 C 17.273438 45.382812 17.605469 51.773438 16.867188 55.125 C 15.703125 60.445312 13.371094 59.9375 12.539062 54.117188 C 11.394531 46.328125 13.878906 39.429688 16.285156 43.609375 Z M 16.285156 43.609375 "/>
<path style=" stroke:none;fill-rule:nonzero;fill:rgb(0%,0%,0%);fill-opacity:1;" d="M 14.558594 45 C 14.558594 45.382812 14.382812 45.570312 14.171875 45.382812 C 13.878906 45.125 13.78125 45.382812 13.78125 46.328125 C 13.78125 47.21875 13.683594 47.46875 13.472656 47.21875 C 13.214844 46.898438 13.179688 47.085938 13.253906 48.101562 C 13.332031 48.984375 13.253906 49.554688 13.0625 49.8125 C 12.789062 50.125 12.789062 50.320312 13.101562 51.015625 C 13.394531 51.710938 13.410156 52.023438 13.199219 52.851562 C 13.003906 53.671875 13.023438 53.796875 13.371094 53.796875 C 13.625 53.796875 13.78125 54.179688 13.78125 54.8125 C 13.78125 55.507812 13.878906 55.695312 14.109375 55.445312 C 14.285156 55.1875 14.5 55.382812 14.597656 55.820312 C 14.714844 56.515625 14.792969 56.515625 14.910156 55.820312 C 15.003906 55.382812 15.21875 55.1875 15.390625 55.445312 C 15.625 55.695312 15.71875 55.507812 15.71875 54.8125 C 15.71875 54.179688 15.875 53.796875 16.128906 53.796875 C 16.480469 53.796875 16.496094 53.671875 16.304688 52.851562 C 16.089844 52.023438 16.109375 51.710938 16.402344 51.015625 C 16.730469 50.25 16.730469 50.1875 16.402344 49.75 C 16.148438 49.429688 16.109375 49.179688 16.285156 48.484375 C 16.535156 47.53125 16.378906 46.773438 15.992188 47.28125 C 15.820312 47.46875 15.71875 47.148438 15.71875 46.328125 C 15.71875 45.382812 15.625 45.125 15.335938 45.382812 C 15.121094 45.570312 14.945312 45.382812 14.945312 45 C 14.945312 44.617188 14.871094 44.304688 14.753906 44.304688 C 14.652344 44.304688 14.558594 44.617188 14.558594 45 Z M 15.296875 47.851562 C 15.796875 48.984375 15.835938 51.015625 15.390625 52.65625 C 15.003906 54.046875 14.597656 54.117188 14.132812 52.71875 C 13.644531 51.328125 13.683594 48.984375 14.210938 47.851562 C 14.441406 47.28125 14.691406 46.835938 14.753906 46.835938 C 14.808594 46.835938 15.0625 47.28125 15.296875 47.851562 Z M 15.296875 47.851562 "/>
</g>
</svg>
